<svg width="159" height="45" viewBox="0 0 159 45" fill="none" xmlns="http://www.w3.org/2000/svg">
<rect width="159" height="45" fill="black" fill-opacity="0"/>
<rect width="159" height="45" fill="black" fill-opacity="0"/>
<rect width="36.7739" height="45" fill="black" fill-opacity="0"/>
<path fill-rule="evenodd" clip-rule="evenodd" d="M29.1245 39.6359L18.4331 39.6155L16.0389 45L29.1245 39.6359Z" fill="#008BD0"/>
<path fill-rule="evenodd" clip-rule="evenodd" d="M0 33.3981L16.8205 0L33.6411 33.3981H20.9612H20.9497L26.8634 20.0514L6.72901 20.0564L11.1914 26.2906L17.465 26.263L14.1259 33.3981H0Z" fill="#6F7F86"/>
<path fill-rule="evenodd" clip-rule="evenodd" d="M29.1656 39.6518L36.7739 39.6254L33.6411 33.3982L29.1656 39.6518Z" fill="#008BD0"/>
<path fill-rule="evenodd" clip-rule="evenodd" d="M16.068 20.0529L22.0974 16.5546L19.7504 20.0529H16.068Z" fill="#475256"/>
<path fill-rule="evenodd" clip-rule="evenodd" d="M11.2119 26.2895L22.0974 16.5546L17.4401 26.2895C12.7591 26.2895 17.3004 26.2895 11.2119 26.2895V26.2895Z" fill="#008BD0"/>
<rect width="124.929" height="15.75" fill="black" fill-opacity="0" transform="translate(34.0714 18)"/>
<path fill-rule="evenodd" clip-rule="evenodd" d="M38.9981 28.3125H43.943L40.9467 20.4563L35.8546 33.75H34.0714L40.2112 18H41.7003L47.8769 33.75H46.0754L44.6048 30H38.3363L38.9981 28.3125ZM48.9798 18H60.7448V19.4438L51.3144 32.0624H60.7448V33.75H48.9798V32.3062L58.3917 19.6875H48.9798V18Z" fill="#008BD0"/>
<path fill-rule="evenodd" clip-rule="evenodd" d="M71.2228 24.5624C73.3062 24.5624 74.3479 25.625 74.3479 27.7499V30.6C74.3479 32.6999 73.3062 33.75 71.2228 33.75H63.5021V32.0624H71.2228C72.2032 32.0624 72.6934 31.575 72.6934 30.6V27.7499C72.6934 26.75 72.2032 26.25 71.2228 26.25H65.7079C63.6246 26.25 62.5829 25.1875 62.5829 23.0625V21.1875C62.5829 19.0625 63.6246 18 65.7079 18H73.4288V19.6875H65.7079C64.7276 19.6875 64.2374 20.1875 64.2374 21.1875V23.0625C64.2374 24.0625 64.7276 24.5624 65.7079 24.5624H71.2228ZM76.186 18H77.8405V33.75H76.186V18ZM81.3333 21.075V33.75H79.6788V18H81.1495L89.7893 30.7874V18H91.4438V33.75H89.9732L81.3333 21.075ZM93.2819 18H94.9364V33.75H93.2819V18ZM105.415 24.5624C107.498 24.5624 108.54 25.625 108.54 27.7499V30.6C108.54 32.6999 107.498 33.75 105.415 33.75H97.6939V32.0624H105.415C106.395 32.0624 106.885 31.575 106.885 30.6V27.7499C106.885 26.75 106.395 26.25 105.415 26.25H99.8997C97.8164 26.25 96.7747 25.1875 96.7747 23.0625V21.1875C96.7747 19.0625 97.8164 18 99.8997 18H107.621V19.6875H99.8997C98.9194 19.6875 98.4292 20.1875 98.4292 21.1875V23.0625C98.4292 24.0625 98.9194 24.5624 99.8997 24.5624H105.415ZM109.826 18H120.543V19.6875H116.076V33.75H114.422V19.6875H109.826V18ZM123.485 19.6875V33.75H121.83V18H128.632C130.715 18 131.757 19.0625 131.757 21.1875V23.0625C131.757 25.1875 130.715 26.25 128.632 26.25H126.812L132.143 33.75H130.139L124.588 26.0063V24.5624H128.632C129.612 24.5624 130.102 24.0625 130.102 23.0625V21.1875C130.102 20.1875 129.612 19.6875 128.632 19.6875H123.485ZM142.272 32.0624C143.252 32.0624 143.742 31.575 143.742 30.6V21.1875C143.742 20.1875 143.252 19.6875 142.272 19.6875H136.757C135.777 19.6875 135.286 20.1875 135.286 21.1875V30.5625C135.286 31.5625 135.777 32.0624 136.757 32.0624H142.272ZM133.632 21.1875C133.632 19.0625 134.674 18 136.757 18H142.272C144.355 18 145.397 19.0625 145.397 21.1875V30.6C145.397 32.6999 144.355 33.75 142.272 33.75H136.757C134.674 33.75 133.632 32.6875 133.632 30.5625V21.1875ZM155.875 24.5624C157.958 24.5624 159 25.625 159 27.7499V30.6C159 32.6999 157.958 33.75 155.875 33.75H148.154V32.0624H155.875C156.855 32.0624 157.346 31.575 157.346 30.6V27.7499C157.346 26.75 156.855 26.25 155.875 26.25H150.36C148.277 26.25 147.235 25.1875 147.235 23.0625V21.1875C147.235 19.0625 148.277 18 150.36 18H158.081V19.6875H150.36C149.38 19.6875 148.89 20.1875 148.89 21.1875V23.0625C148.89 24.0625 149.38 24.5624 150.36 24.5624H155.875Z" fill="#6F7F86"/>
</svg>
